<svg width="1024" height="1024" viewBox="0 0 1024 1024" fill="none" xmlns="http://www.w3.org/2000/svg">
<rect width="1024" height="1024" rx="30" fill="#142433"/>
<path d="M934.976 210.731C937.81 207.896 942.658 209.904 942.658 213.913V601.053C942.658 603.538 940.643 605.553 938.158 605.553H551.019C547.01 605.553 545.001 600.705 547.836 597.87L934.976 210.731Z" fill="#19726B" stroke="#19726B"/>
<path d="M81.354 130.267C81.5971 126.833 85.534 124.894 88.4233 126.917L614.621 495.255C616.912 496.859 617.197 500.149 615.218 502.128L513.124 604.223C512.278 605.068 511.121 605.553 509.929 605.553H85.8423C83.357 605.553 81.3423 603.538 81.3423 601.053V130.604L81.354 130.267Z" fill="#945722" stroke="#945722"/>
<path d="M59 625.447H965C967.485 625.447 969.5 627.462 969.5 629.947V654.947C969.5 657.433 967.485 659.447 965 659.447H59C56.5147 659.447 54.5 657.433 54.5 654.947V629.947C54.5 627.462 56.5147 625.447 59 625.447Z" fill="#E9E2D1" stroke="#E9E2D1"/>
<path d="M508.531 665.14C510.331 662.963 513.669 662.963 515.469 665.14L704.85 894.291C707.275 897.225 705.188 901.658 701.381 901.658H649.143C647.111 901.658 645.338 900.358 644.713 898.422C641.468 888.374 630.814 858.956 609.725 832.041C588.631 805.12 557.059 780.658 512 780.658C466.941 780.658 435.369 805.12 414.275 832.041C393.186 858.956 382.532 888.374 379.287 898.422C378.662 900.358 376.889 901.658 374.857 901.658H322.619C318.812 901.658 316.725 897.225 319.15 894.291L508.531 665.14Z" fill="#E9E2D1" stroke="#E9E2D1"/>
</svg>
